<mxfile host="app.diagrams.net" agent="Mozilla/5.0 (Windows NT 10.0; Win64; x64) AppleWebKit/537.36 (KHTML, like Gecko) Chrome/92.0.4515.131 Safari/537.36 Edg/92.0.902.67" version="25.0.1">
  <diagram name="Page-1" id="HkjJZXs-4z2irBnooBRe">
    <mxGraphModel dx="1050" dy="580" grid="1" gridSize="10" guides="1" tooltips="1" connect="1" arrows="1" fold="1" page="1" pageScale="1" pageWidth="850" pageHeight="1100" math="0" shadow="0">
      <root>
        <mxCell id="0" />
        <mxCell id="1" parent="0" />
        <mxCell id="9840ufdxH_TjdKwxxTOR-20" value="&lt;b&gt;InvoiceNo&lt;/b&gt;" style="rounded=0;whiteSpace=wrap;html=1;align=left;" parent="1" vertex="1">
          <mxGeometry x="455" y="630" width="180" height="20" as="geometry" />
        </mxCell>
        <mxCell id="9840ufdxH_TjdKwxxTOR-25" value="Quantity" style="rounded=0;whiteSpace=wrap;html=1;align=left;" parent="1" vertex="1">
          <mxGeometry x="455" y="650" width="180" height="20" as="geometry" />
        </mxCell>
        <mxCell id="9840ufdxH_TjdKwxxTOR-26" value="Amount = UnitPriceXQuantity" style="rounded=0;whiteSpace=wrap;html=1;align=left;" parent="1" vertex="1">
          <mxGeometry x="455" y="670" width="180" height="20" as="geometry" />
        </mxCell>
        <mxCell id="9840ufdxH_TjdKwxxTOR-36" value="&lt;b&gt;Stock_Dim&lt;/b&gt;" style="rounded=0;whiteSpace=wrap;html=1;" parent="1" vertex="1">
          <mxGeometry x="155" y="260" width="175" height="20" as="geometry" />
        </mxCell>
        <mxCell id="9840ufdxH_TjdKwxxTOR-39" value="" style="rounded=0;whiteSpace=wrap;html=1;" parent="1" vertex="1">
          <mxGeometry x="110" y="260" width="50" height="20" as="geometry" />
        </mxCell>
        <mxCell id="9840ufdxH_TjdKwxxTOR-44" value="&lt;b&gt;PK&lt;/b&gt;" style="rounded=0;whiteSpace=wrap;html=1;" parent="1" vertex="1">
          <mxGeometry x="110" y="280" width="50" height="20" as="geometry" />
        </mxCell>
        <mxCell id="9840ufdxH_TjdKwxxTOR-56" value="&lt;b&gt;Stockey&lt;/b&gt;" style="swimlane;fontStyle=0;childLayout=stackLayout;horizontal=1;startSize=20;horizontalStack=0;resizeParent=1;resizeParentMax=0;resizeLast=0;collapsible=1;marginBottom=0;whiteSpace=wrap;html=1;align=left;" parent="1" vertex="1">
          <mxGeometry x="160" y="280" width="170" height="140" as="geometry" />
        </mxCell>
        <mxCell id="9840ufdxH_TjdKwxxTOR-57" value="Stock_Code" style="text;strokeColor=none;fillColor=none;align=left;verticalAlign=middle;spacingLeft=4;spacingRight=4;overflow=hidden;points=[[0,0.5],[1,0.5]];portConstraint=eastwest;rotatable=0;whiteSpace=wrap;html=1;" parent="9840ufdxH_TjdKwxxTOR-56" vertex="1">
          <mxGeometry y="20" width="170" height="30" as="geometry" />
        </mxCell>
        <mxCell id="9840ufdxH_TjdKwxxTOR-58" value="Description" style="text;strokeColor=none;fillColor=none;align=left;verticalAlign=middle;spacingLeft=4;spacingRight=4;overflow=hidden;points=[[0,0.5],[1,0.5]];portConstraint=eastwest;rotatable=0;whiteSpace=wrap;html=1;" parent="9840ufdxH_TjdKwxxTOR-56" vertex="1">
          <mxGeometry y="50" width="170" height="30" as="geometry" />
        </mxCell>
        <mxCell id="9840ufdxH_TjdKwxxTOR-59" value="UnitPrice&lt;div&gt;&lt;br&gt;&lt;div&gt;Quantity&lt;/div&gt;&lt;/div&gt;" style="text;strokeColor=none;fillColor=none;align=left;verticalAlign=middle;spacingLeft=4;spacingRight=4;overflow=hidden;points=[[0,0.5],[1,0.5]];portConstraint=eastwest;rotatable=0;whiteSpace=wrap;html=1;" parent="9840ufdxH_TjdKwxxTOR-56" vertex="1">
          <mxGeometry y="80" width="170" height="60" as="geometry" />
        </mxCell>
        <mxCell id="9840ufdxH_TjdKwxxTOR-60" style="edgeStyle=orthogonalEdgeStyle;rounded=0;orthogonalLoop=1;jettySize=auto;html=1;exitX=0.5;exitY=1;exitDx=0;exitDy=0;" parent="1" source="9840ufdxH_TjdKwxxTOR-44" target="9840ufdxH_TjdKwxxTOR-44" edge="1">
          <mxGeometry relative="1" as="geometry" />
        </mxCell>
        <mxCell id="9840ufdxH_TjdKwxxTOR-61" value="" style="rounded=0;whiteSpace=wrap;html=1;" parent="1" vertex="1">
          <mxGeometry x="110" y="300" width="50" height="120" as="geometry" />
        </mxCell>
        <mxCell id="9840ufdxH_TjdKwxxTOR-62" value="&lt;b&gt;Customer_Dim&lt;/b&gt;" style="rounded=0;whiteSpace=wrap;html=1;" parent="1" vertex="1">
          <mxGeometry x="145" y="589" width="175" height="20" as="geometry" />
        </mxCell>
        <mxCell id="9840ufdxH_TjdKwxxTOR-63" value="" style="rounded=0;whiteSpace=wrap;html=1;" parent="1" vertex="1">
          <mxGeometry x="100" y="589" width="50" height="20" as="geometry" />
        </mxCell>
        <mxCell id="9840ufdxH_TjdKwxxTOR-64" value="&lt;b&gt;PK&lt;/b&gt;" style="rounded=0;whiteSpace=wrap;html=1;" parent="1" vertex="1">
          <mxGeometry x="100" y="609" width="50" height="20" as="geometry" />
        </mxCell>
        <mxCell id="9840ufdxH_TjdKwxxTOR-65" value="&lt;b&gt;CustomerKey&lt;/b&gt;" style="swimlane;fontStyle=0;childLayout=stackLayout;horizontal=1;startSize=20;horizontalStack=0;resizeParent=1;resizeParentMax=0;resizeLast=0;collapsible=1;marginBottom=0;whiteSpace=wrap;html=1;align=left;" parent="1" vertex="1">
          <mxGeometry x="150" y="610" width="170" height="80" as="geometry" />
        </mxCell>
        <mxCell id="9840ufdxH_TjdKwxxTOR-66" value="CustomerId" style="text;strokeColor=none;fillColor=none;align=left;verticalAlign=middle;spacingLeft=4;spacingRight=4;overflow=hidden;points=[[0,0.5],[1,0.5]];portConstraint=eastwest;rotatable=0;whiteSpace=wrap;html=1;" parent="9840ufdxH_TjdKwxxTOR-65" vertex="1">
          <mxGeometry y="20" width="170" height="30" as="geometry" />
        </mxCell>
        <mxCell id="9840ufdxH_TjdKwxxTOR-67" value="Country" style="text;strokeColor=none;fillColor=none;align=left;verticalAlign=middle;spacingLeft=4;spacingRight=4;overflow=hidden;points=[[0,0.5],[1,0.5]];portConstraint=eastwest;rotatable=0;whiteSpace=wrap;html=1;" parent="9840ufdxH_TjdKwxxTOR-65" vertex="1">
          <mxGeometry y="50" width="170" height="30" as="geometry" />
        </mxCell>
        <mxCell id="9840ufdxH_TjdKwxxTOR-69" style="edgeStyle=orthogonalEdgeStyle;rounded=0;orthogonalLoop=1;jettySize=auto;html=1;exitX=0.5;exitY=1;exitDx=0;exitDy=0;" parent="1" source="9840ufdxH_TjdKwxxTOR-64" target="9840ufdxH_TjdKwxxTOR-64" edge="1">
          <mxGeometry relative="1" as="geometry" />
        </mxCell>
        <mxCell id="9840ufdxH_TjdKwxxTOR-70" value="" style="rounded=0;whiteSpace=wrap;html=1;" parent="1" vertex="1">
          <mxGeometry x="100" y="630" width="50" height="60" as="geometry" />
        </mxCell>
        <mxCell id="9840ufdxH_TjdKwxxTOR-71" value="&lt;b&gt;Date_Dim&lt;/b&gt;" style="rounded=0;whiteSpace=wrap;html=1;" parent="1" vertex="1">
          <mxGeometry x="645" y="260" width="175" height="20" as="geometry" />
        </mxCell>
        <mxCell id="9840ufdxH_TjdKwxxTOR-72" value="" style="rounded=0;whiteSpace=wrap;html=1;" parent="1" vertex="1">
          <mxGeometry x="600" y="260" width="50" height="20" as="geometry" />
        </mxCell>
        <mxCell id="9840ufdxH_TjdKwxxTOR-73" value="&lt;b&gt;PK&lt;/b&gt;" style="rounded=0;whiteSpace=wrap;html=1;" parent="1" vertex="1">
          <mxGeometry x="600" y="280" width="50" height="20" as="geometry" />
        </mxCell>
        <mxCell id="9840ufdxH_TjdKwxxTOR-74" value="&lt;b&gt;DateKey&lt;/b&gt;" style="swimlane;fontStyle=0;childLayout=stackLayout;horizontal=1;startSize=20;horizontalStack=0;resizeParent=1;resizeParentMax=0;resizeLast=0;collapsible=1;marginBottom=0;whiteSpace=wrap;html=1;align=left;" parent="1" vertex="1">
          <mxGeometry x="650" y="280" width="170" height="110" as="geometry" />
        </mxCell>
        <mxCell id="9840ufdxH_TjdKwxxTOR-75" value="InvoiveFullDate" style="text;strokeColor=none;fillColor=none;align=left;verticalAlign=middle;spacingLeft=4;spacingRight=4;overflow=hidden;points=[[0,0.5],[1,0.5]];portConstraint=eastwest;rotatable=0;whiteSpace=wrap;html=1;" parent="9840ufdxH_TjdKwxxTOR-74" vertex="1">
          <mxGeometry y="20" width="170" height="30" as="geometry" />
        </mxCell>
        <mxCell id="9840ufdxH_TjdKwxxTOR-76" value="Year" style="text;strokeColor=none;fillColor=none;align=left;verticalAlign=middle;spacingLeft=4;spacingRight=4;overflow=hidden;points=[[0,0.5],[1,0.5]];portConstraint=eastwest;rotatable=0;whiteSpace=wrap;html=1;" parent="9840ufdxH_TjdKwxxTOR-74" vertex="1">
          <mxGeometry y="50" width="170" height="30" as="geometry" />
        </mxCell>
        <mxCell id="9840ufdxH_TjdKwxxTOR-77" value="Month" style="text;strokeColor=none;fillColor=none;align=left;verticalAlign=middle;spacingLeft=4;spacingRight=4;overflow=hidden;points=[[0,0.5],[1,0.5]];portConstraint=eastwest;rotatable=0;whiteSpace=wrap;html=1;" parent="9840ufdxH_TjdKwxxTOR-74" vertex="1">
          <mxGeometry y="80" width="170" height="30" as="geometry" />
        </mxCell>
        <mxCell id="9840ufdxH_TjdKwxxTOR-78" style="edgeStyle=orthogonalEdgeStyle;rounded=0;orthogonalLoop=1;jettySize=auto;html=1;exitX=0.5;exitY=1;exitDx=0;exitDy=0;" parent="1" source="9840ufdxH_TjdKwxxTOR-73" target="9840ufdxH_TjdKwxxTOR-73" edge="1">
          <mxGeometry relative="1" as="geometry" />
        </mxCell>
        <mxCell id="9840ufdxH_TjdKwxxTOR-79" value="" style="rounded=0;whiteSpace=wrap;html=1;" parent="1" vertex="1">
          <mxGeometry x="600" y="300" width="50" height="90" as="geometry" />
        </mxCell>
        <mxCell id="F694yW1zDdzlYHpRkyBS-6" value="&lt;b&gt;PK&amp;nbsp;&lt;/b&gt;" style="rounded=0;whiteSpace=wrap;html=1;" parent="1" vertex="1">
          <mxGeometry x="395" y="630" width="60" height="20" as="geometry" />
        </mxCell>
        <mxCell id="F694yW1zDdzlYHpRkyBS-9" value="" style="rounded=0;whiteSpace=wrap;html=1;" parent="1" vertex="1">
          <mxGeometry x="395" y="650" width="60" height="20" as="geometry" />
        </mxCell>
        <mxCell id="F694yW1zDdzlYHpRkyBS-30" style="edgeStyle=orthogonalEdgeStyle;rounded=0;orthogonalLoop=1;jettySize=auto;html=1;exitX=0;exitY=0.25;exitDx=0;exitDy=0;entryX=1;entryY=0.5;entryDx=0;entryDy=0;" parent="1" source="F694yW1zDdzlYHpRkyBS-10" target="9840ufdxH_TjdKwxxTOR-67" edge="1">
          <mxGeometry relative="1" as="geometry" />
        </mxCell>
        <mxCell id="F694yW1zDdzlYHpRkyBS-10" value="" style="rounded=0;whiteSpace=wrap;html=1;" parent="1" vertex="1">
          <mxGeometry x="395" y="670" width="60" height="20" as="geometry" />
        </mxCell>
        <mxCell id="F694yW1zDdzlYHpRkyBS-23" style="edgeStyle=orthogonalEdgeStyle;rounded=0;orthogonalLoop=1;jettySize=auto;html=1;exitX=0.5;exitY=0;exitDx=0;exitDy=0;entryX=1;entryY=0.5;entryDx=0;entryDy=0;" parent="1" source="F694yW1zDdzlYHpRkyBS-12" target="9840ufdxH_TjdKwxxTOR-57" edge="1">
          <mxGeometry relative="1" as="geometry">
            <Array as="points">
              <mxPoint x="515" y="315" />
            </Array>
          </mxGeometry>
        </mxCell>
        <mxCell id="F694yW1zDdzlYHpRkyBS-12" value="&lt;b&gt;&lt;font style=&quot;font-size: 14px;&quot;&gt;Table (SalesFact)&lt;/font&gt;&lt;/b&gt;" style="rounded=0;whiteSpace=wrap;html=1;" parent="1" vertex="1">
          <mxGeometry x="395" y="550" width="240" height="20" as="geometry" />
        </mxCell>
        <mxCell id="F694yW1zDdzlYHpRkyBS-18" value="&lt;b&gt;CustomerKey&lt;/b&gt;" style="rounded=0;whiteSpace=wrap;html=1;align=left;" parent="1" vertex="1">
          <mxGeometry x="455" y="610" width="180" height="20" as="geometry" />
        </mxCell>
        <mxCell id="F694yW1zDdzlYHpRkyBS-19" value="&lt;b&gt;PK, FK1&lt;/b&gt;&lt;div&gt;&lt;b&gt;PK, FK2&lt;/b&gt;&lt;/div&gt;" style="rounded=0;whiteSpace=wrap;html=1;" parent="1" vertex="1">
          <mxGeometry x="395" y="570" width="60" height="40" as="geometry" />
        </mxCell>
        <mxCell id="F694yW1zDdzlYHpRkyBS-20" value="&lt;b&gt;StocKey&lt;/b&gt;&lt;div&gt;&lt;b&gt;DateKey&lt;/b&gt;&lt;/div&gt;" style="rounded=0;whiteSpace=wrap;html=1;align=left;" parent="1" vertex="1">
          <mxGeometry x="455" y="570" width="180" height="40" as="geometry" />
        </mxCell>
        <mxCell id="F694yW1zDdzlYHpRkyBS-21" value="&lt;b&gt;PK, FK3&lt;/b&gt;" style="rounded=0;whiteSpace=wrap;html=1;" parent="1" vertex="1">
          <mxGeometry x="395" y="610" width="60" height="20" as="geometry" />
        </mxCell>
        <mxCell id="F694yW1zDdzlYHpRkyBS-27" style="edgeStyle=orthogonalEdgeStyle;rounded=0;orthogonalLoop=1;jettySize=auto;html=1;exitX=0.5;exitY=0;exitDx=0;exitDy=0;entryX=-0.008;entryY=0.103;entryDx=0;entryDy=0;entryPerimeter=0;" parent="1" source="F694yW1zDdzlYHpRkyBS-12" target="9840ufdxH_TjdKwxxTOR-79" edge="1">
          <mxGeometry relative="1" as="geometry" />
        </mxCell>
      </root>
    </mxGraphModel>
  </diagram>
</mxfile>
